<?xml version="1.0" encoding="UTF-8"?>
<svg width="256px" height="256px" viewBox="0 0 256 256" version="1.1" xmlns="http://www.w3.org/2000/svg" xmlns:xlink="http://www.w3.org/1999/xlink">
    <!-- Generator: Sketch 49.2 (51160) - http://www.bohemiancoding.com/sketch -->
    <title>TextPattern Importer</title>
    <desc>Created with Sketch.</desc>
    <defs>
        <linearGradient x1="50%" y1="-2.48949813e-15%" x2="50%" y2="100%" id="linearGradient-1">
            <stop stop-color="#99D9ED" offset="0%"></stop>
            <stop stop-color="#33B3DB" offset="100%"></stop>
        </linearGradient>
        <linearGradient x1="43.2070039%" y1="57.7931729%" x2="57.7733199%" y2="43.2242069%" id="linearGradient-2">
            <stop stop-color="#7B6C35" offset="14.8%"></stop>
            <stop stop-color="#B9AA69" offset="83.5%"></stop>
        </linearGradient>
        <linearGradient x1="46.1448054%" y1="57.7833781%" x2="61.4757734%" y2="43.4309536%" id="linearGradient-3">
            <stop stop-color="#2B2414" offset="9.3%"></stop>
            <stop stop-color="#624E22" offset="73.6%"></stop>
        </linearGradient>
        <linearGradient x1="58.3709381%" y1="45.3544633%" x2="47.4287198%" y2="55.6665104%" id="linearGradient-4">
            <stop stop-color="#2D2400" offset="51.6%"></stop>
            <stop stop-color="#211700" offset="86.3%"></stop>
        </linearGradient>
        <linearGradient x1="34.2474818%" y1="34.2492694%" x2="65.7635468%" y2="65.7617586%" id="linearGradient-5">
            <stop stop-color="#FFFFFF" offset="0%"></stop>
            <stop stop-color="#666666" offset="100%"></stop>
        </linearGradient>
        <linearGradient x1="12.9110298%" y1="87.0959%" x2="86.7773713%" y2="13.2118936%" id="linearGradient-6">
            <stop stop-color="#0A0A0A" offset="7.7%"></stop>
            <stop stop-color="#0F0F0F" offset="53.3%"></stop>
            <stop stop-color="#1A1A1A" offset="91.2%"></stop>
        </linearGradient>
        <linearGradient x1="-2.54988914%" y1="2.5495916%" x2="97.4559459%" y2="102.543757%" id="linearGradient-7">
            <stop stop-color="#999999" offset="0%"></stop>
            <stop stop-color="#1A1A1A" offset="100%"></stop>
        </linearGradient>
        <linearGradient x1="2.53821916%" y1="-2.53614739%" x2="102.579064%" y2="97.423041%" id="linearGradient-8">
            <stop stop-color="#CCCCCC" offset="0%"></stop>
            <stop stop-color="#333333" offset="100%"></stop>
        </linearGradient>
        <linearGradient x1="0%" y1="50%" x2="100.002714%" y2="50%" id="linearGradient-9">
            <stop stop-color="#CDCDCB" offset="12.5%"></stop>
            <stop stop-color="#A09EA1" offset="87.5%"></stop>
        </linearGradient>
        <linearGradient x1="50%" y1="0%" x2="50%" y2="100%" id="linearGradient-10">
            <stop stop-color="#FBFBFC" offset="0%"></stop>
            <stop stop-color="#F3F4F5" offset="100%"></stop>
        </linearGradient>
        <path d="M72.4713872,111 L92.0026372,111 C95.2497075,111 97.8620122,113.612305 97.8620122,116.859375 L97.8620122,157.875 L119.273145,157.875 C123.618848,157.875 125.7917,163.124023 122.715528,166.200195 L85.5817387,203.358398 C83.750684,205.189453 69.2243168,111 72.4713872,111 Z" id="path-11"></path>
        <filter x="-2.9%" y="-1.6%" width="105.8%" height="103.2%" filterUnits="objectBoundingBox" id="filter-12">
            <feMorphology radius="0.5" operator="dilate" in="SourceAlpha" result="shadowSpreadOuter1"></feMorphology>
            <feOffset dx="0" dy="0" in="shadowSpreadOuter1" result="shadowOffsetOuter1"></feOffset>
            <feColorMatrix values="0 0 0 0 0.11372549   0 0 0 0 0.11372549   0 0 0 0 0.105882353  0 0 0 0.1 0" type="matrix" in="shadowOffsetOuter1"></feColorMatrix>
        </filter>
        <path d="M52.734375,0 L72.265625,0 C75.5126953,0 78.125,2.61230469 78.125,5.859375 L78.125,46.875 L99.5361328,46.875 C103.881836,46.875 106.054687,52.1240234 102.978516,55.2001953 L65.8447266,92.3583984 C64.0136719,94.1894531 61.0107422,94.1894531 59.1796875,92.3583984 L21.9970703,55.2001953 C18.9208984,52.1240234 21.09375,46.875 25.4394531,46.875 L46.875,46.875 L46.875,5.859375 C46.875,2.61230469 49.4873047,0 52.734375,0 Z M125,91.796875 L125,119.140625 C125,122.387695 122.387695,125 119.140625,125 L5.859375,125 C2.61230469,125 0,122.387695 0,119.140625 L0,91.796875 C0,88.5498047 2.61230469,85.9375 5.859375,85.9375 L41.6748047,85.9375 L53.6376953,97.9003906 C58.5449219,102.807617 66.4550781,102.807617 71.3623047,97.9003906 L83.3251953,85.9375 L119.140625,85.9375 C122.387695,85.9375 125,88.5498047 125,91.796875 Z" id="path-13"></path>
        <filter x="-26.4%" y="-26.4%" width="152.8%" height="152.8%" filterUnits="objectBoundingBox" id="filter-14">
            <feMorphology radius="1" operator="dilate" in="SourceAlpha" result="shadowSpreadOuter1"></feMorphology>
            <feOffset dx="0" dy="0" in="shadowSpreadOuter1" result="shadowOffsetOuter1"></feOffset>
            <feGaussianBlur stdDeviation="10" in="shadowOffsetOuter1" result="shadowBlurOuter1"></feGaussianBlur>
            <feColorMatrix values="0 0 0 0 0   0 0 0 0 0.403921569   0 0 0 0 0.6  0 0 0 0.4 0" type="matrix" in="shadowBlurOuter1"></feColorMatrix>
        </filter>
    </defs>
    <g id="TextPattern-Importer" stroke="none" stroke-width="1" fill="none" fill-rule="evenodd">
        <rect id="Rectangle" fill="url(#linearGradient-1)" x="0" y="0" width="256" height="256"></rect>
        <g id="Group-2" transform="translate(76.000000, 20.000000)">
            <rect id="Rectangle-3" fill="#FFFFFF" x="0" y="0" width="160" height="160" rx="26"></rect>
            <g id="textpattern" transform="translate(23.000000, 23.000000)" fill-rule="nonzero">
                <path d="M110.150234,110.150234 C106.134219,114.139297 101.95918,116.028711 100.341094,114.386367 C99.7301563,113.789805 100.341094,114.386367 100.341094,114.386367 C100.042813,114.107852 89.5984766,102.594375 77.7292188,90.7080469 C66.9749219,79.9645313 54.3734375,69.0601953 46.5956641,61.3327344 C38.8277734,53.5253125 25.9208203,39.0245313 25.9109375,39.0101563 L25.0484375,38.0398438 L31.30875,31.236875 L38.0326562,25.0646094 L38.999375,25.918125 C39.0065625,25.9253125 53.518125,38.8493359 61.3183594,46.6064453 C69.0601953,54.3734375 79.9465625,66.9964844 90.6927734,77.7462891 C102.579102,89.6056641 113.967695,99.9161328 114.46543,100.4525 C115.87418,101.836094 114.333359,105.952734 110.150234,110.150234 Z" id="Shape" fill="#000000"></path>
                <path d="M60.2195703,47.6279688 C52.5442187,39.9229688 38.0425391,26.9998438 38.0425391,26.9998438 L32.2808594,32.2898438 L26.9926562,38.0542188 C26.9926562,38.0542188 39.9085938,52.5621875 47.6171875,60.245625 C55.3141016,67.9587109 67.93625,78.8908984 78.7480469,89.6928125 C90.6217969,101.558477 101.164063,113.192344 101.346445,113.371133 C101.528828,113.559805 103.750664,114.486992 109.12332,109.130508 C114.485195,103.786602 113.537344,101.540508 113.425039,101.403945 C113.299258,101.29793 101.55668,90.6496484 89.6865234,78.7561328 C78.8648438,67.93625 67.9443359,55.3320703 60.2177734,47.6270703 L60.2195703,47.6279688 Z" id="Shape" fill="url(#linearGradient-2)"></path>
                <path d="M108.022734,110.195156 C107.643594,110.150234 107.257266,109.840273 106.759531,109.370391 C106.225859,108.808867 95.1714844,97.5963672 83.3013281,85.7091406 C78.8837109,81.2942187 70.1697656,73.2567969 68.9694531,72.1939453 C66.8221875,70.3233984 67.0108594,68.4142187 68.1303125,66.5607422 C69.2919922,64.6830078 72.0852344,62.3291016 73.9521875,62.1530078 L68.6810547,56.4632031 C63.4970703,59.3939062 57.5062891,62.833125 56.6482812,61.913125 C52.5064844,57.8539844 42.0100391,47.2928516 37.5654687,42.8599609 C35.6176562,40.9121484 35.8791016,38.8259766 36.9796875,36.7622656 C38.1871875,34.5044922 41.2697266,32.0427734 43.0998437,31.5396484 C40.1098437,28.8443359 38.0416406,26.9980469 38.0416406,26.9980469 L32.2826562,32.2871484 L26.9926562,38.050625 C26.9926562,38.050625 39.9085937,52.5612891 47.6171875,60.2447266 C55.3141016,67.9578125 67.93625,78.89 78.7480469,89.6919141 C90.6217969,101.558477 101.164062,113.192344 101.346445,113.371133 C101.508164,113.548125 103.457773,114.362109 108.021836,110.196055 L108.022734,110.195156 Z" id="Shape" fill="url(#linearGradient-3)"></path>
                <path d="M87.0010937,80.6886719 C87.0010937,80.6886719 85.5231641,78.8980859 83.7370703,77.1290625 C81.9473828,75.3214062 79.9923828,73.4903906 79.9923828,73.4903906 C79.9923828,73.4903906 82.1719922,75.9745703 83.3166016,77.13625 C84.4710937,78.300625 87.0001953,80.6877734 87.0001953,80.6877734 L87.0010937,80.6886719 Z M59.9635156,52.4957031 C58.33375,50.7922656 55.4291016,48.0259766 55.4291016,48.0259766 C55.4291016,48.0259766 58.0687109,51.3052734 59.5978516,52.8478906 C61.1117188,54.4111719 61.6552734,54.1883594 59.9635156,52.4957031 Z M56.0660938,59.2070312 C53.3231641,56.4667969 48.9145313,52.2953516 41.7845313,45.1689453 C36.2699219,39.6570312 31.8585938,35.535 30.4785938,34.2574219 L30.1623438,34.5970312 C32.0670313,36.4451172 40.2922266,44.3253125 44.8095703,48.8390625 C49.9423438,53.9691406 58.6616797,62.0910156 60.9634766,64.0136719 C63.3146875,65.9165625 67.7466797,69.7816406 71.1445703,73.1741406 C74.5523438,76.5855078 78.128125,79.7650781 78.128125,79.7650781 C78.128125,79.7650781 72.3242188,73.7563281 69.7403125,71.1939844 C67.2004297,68.6469141 59.1800781,62.3515625 56.0660938,59.2070312 Z M54.3554688,47.1437109 C54.3554688,47.1437109 50.7859766,43.5769141 45.3953516,38.1862891 C41.2697266,34.0579687 37.1441016,29.9503125 36.0408203,28.83625 L36.0228516,28.850625 C37.1234375,30.0769922 41.3236328,34.7659375 45.0898828,38.5357812 C49.4742578,42.9201563 54.3554688,47.1428125 54.3554688,47.1428125 L54.3554688,47.1437109 Z M43.3882422,40.6902344 C44.1069922,41.3928125 46.0476172,43.3046875 47.4761328,44.7394922 C48.9046484,46.1572266 51.8964453,49.4113672 52.6421484,50.154375 C55.6069922,53.1282031 57.6617188,54.9789844 61.2168359,58.4945703 C64.6910938,61.9679297 73.3214844,70.9765625 75.0554688,72.7168359 C77.9816797,75.6304687 81.9824219,79.83875 84.0398438,81.8916797 C86.0792969,83.9401172 90.7278125,88.3873828 93.0933984,90.7385937 C95.4446094,93.1041797 98.5684766,96.1364062 100.649258,98.2064063 C102.758789,100.290781 108.380313,105.059687 108.380313,105.059687 C108.380313,105.059687 99.3959375,96.2226562 96.1885156,93.0080469 C92.9739063,89.78625 88.8815234,86.1709375 86.8851953,84.1925781 C84.1198047,81.3984375 79.5539453,76.5109375 77.2027344,74.1516406 C74.8443359,71.7977344 74.131875,71.3682812 73.6233594,70.8768359 C73.1076563,70.3898828 68.1905078,65.2274609 66.8994531,63.8941797 C65.5967188,62.6201953 54.1146875,50.9476953 52.0069531,48.8417578 C49.8920313,46.7259375 47.6657031,44.5562109 46.7708594,43.6631641 C45.8688281,42.7647266 44.3333984,40.9292187 43.3747656,39.9705859 C42.4107422,39.0164453 40.8088281,37.5834375 39.6803906,36.4514062 C38.61125,35.3795703 35.7021094,32.5836328 33.9124219,30.7975391 L33.2790234,31.3698437 C36.3453906,34.3778125 38.2617578,35.6392187 39.4378125,36.814375 C40.6596875,38.0389453 42.6658984,39.9723828 43.3891406,40.6884375 L43.3882422,40.6902344 Z M50.3735938,52.7472656 C52.555,54.9394531 61.7298438,63.1960938 61.7298438,63.1960938 C61.7298438,63.1960938 55.4452734,57.2394531 52.2845703,54.064375 C49.1256641,50.8955859 45.2408203,46.8454297 41.4583984,43.0675 C38.3138672,39.905 33.1766016,34.7210156 31.5576172,33.0858594 L31.0814453,33.5952734 C33.2107422,35.6041797 40.1916016,42.23375 42.2157813,44.2776953 C44.6235938,46.6711328 48.1814063,50.5559766 50.3735938,52.7481641 L50.3735938,52.7472656 Z M96.6592969,95.4661719 C94.3925391,93.2128906 92.1599219,91.2228516 90.16,89.2328125 C88.1528906,87.2382813 82.4244531,81.2457031 82.4244531,81.2457031 C82.4244531,81.2457031 88.2930469,87.9372656 90.4726563,90.1025 C92.6307031,92.2785156 94.1966797,93.3458594 96.7689063,95.9423438 C99.3564063,98.5433203 103.278984,102.624922 104.830586,104.154063 C106.088398,105.401094 108.839414,107.586094 109.850156,108.376719 C109.923828,108.277891 110.036133,108.183555 110.130469,108.089219 C108.831328,106.948203 104.759609,103.383203 102.977109,101.593516 C100.849609,99.4426563 98.9251563,97.7392188 96.6592969,95.4661719 Z M104.450547,97.7392188 C103.060664,96.3376562 99.1093359,92.3485938 98.2737891,91.5310156 C97.4490234,90.6999609 94.4410547,88.3559375 94.4410547,88.3559375 C94.4410547,88.3559375 96.5119531,90.62 97.0869531,91.1815234 C97.6439844,91.7385547 100.806484,94.3709766 103.151406,96.729375 C105.172891,98.7436719 110.556328,104.215156 112.034258,105.728125 C112.240898,105.451406 112.402617,105.189063 112.555352,104.922227 C111.019023,103.601523 105.649961,98.9404297 104.449648,97.7401172 L104.450547,97.7392188 Z M48.0771875,47.2721875 C45.6010938,44.7502734 42.6146875,41.4116797 41.5545313,40.3632031 C39.1107813,37.9041797 34.2915625,33.7309375 32.5701563,32.0292969 L32.2826563,32.2898437 L32.2377344,32.3374609 C34.0004688,34.0408984 39.2769922,39.0182422 42.593125,42.3191016 C44.7358984,44.4726562 48.0771875,47.2712891 48.0771875,47.2712891 L48.0771875,47.2721875 Z M46.0646875,46.2982812 C48.7420313,48.9801172 68.4672266,68.3010156 71.0080078,70.8408984 C73.5209375,73.3385547 76.4228906,76.4830859 77.9169922,77.9744922 C79.3814453,79.4497266 83.4908984,83.6849609 83.4908984,83.6849609 C83.4908984,83.6849609 77.9655078,77.4201562 74.7491016,74.2064453 C71.53,70.9873437 63.6650781,62.890625 60.0713281,59.2411719 C57.3966797,56.5296875 46.0628906,46.2964844 46.0628906,46.2964844 L46.0646875,46.2982812 Z" id="Shape" fill="#6B5600"></path>
                <path d="M78.0867969,86.2464062 C74.419375,82.5933594 67.3504687,75.9215625 64.2742187,72.8632812 C63.7468359,72.3448828 57.5179688,66.2597656 56.2314063,64.9534375 C54.9349609,63.6327344 43.4780859,53.2467969 41.3595703,51.1417578 C39.2500391,49.01875 36.8709766,46.1428516 35.9725391,45.2542969 C35.0741016,44.3558594 33.3850391,42.3730078 32.4353906,41.4089844 C31.4794531,40.4566406 30.0203906,38.8915625 28.8892578,37.7613281 C28.5011328,37.3696094 28.2100391,37.1503906 28.0519141,37.0785156 L27.9153516,37.1980078 C27.9908203,37.3687109 28.2136328,37.6831641 28.6556641,38.1072266 C29.8775391,39.3219141 31.4444141,41.2724219 32.1703516,41.9812891 C32.8801172,42.6910547 35.2636719,45.0323828 36.6939844,46.4555078 C38.1171094,47.8903125 40.8232031,50.9944141 41.5707031,51.7455078 C44.5409375,54.7076562 46.8759766,56.2736328 50.3906641,59.8539062 C53.90625,63.3155859 62.2374609,71.6710547 63.9750391,73.4050391 C66.9264062,76.3429297 71.2011719,79.9923828 73.2469141,82.0417188 C75.3133203,84.0946484 79.9582422,88.9839453 82.3049609,91.3279688 C84.6552734,93.6971484 87.7611719,96.9189453 89.8635156,99.000625 C91.9407031,101.080508 97.6017578,106.366016 97.6017578,106.366016 C88.9471094,97.5882813 89.2319141,97.3151563 86.2059766,94.314375 C83.0129297,91.0997656 80.0651562,88.2571094 78.0858984,86.2464063 L78.0867969,86.2464062 Z M97.2145312,101.636641 C94.2586719,98.7077344 92.0548047,96.3502344 88.938125,93.2407422 C85.8250391,90.1564062 82.34,86.8645312 79.6033594,84.1341797 C76.8514453,81.4146094 68.9685547,73.8093359 68.9685547,73.8093359 C68.9685547,73.8093359 76.7454297,81.9967969 79.7354297,84.9346875 C82.7245312,87.9282812 85.1107812,90.3432812 88.6802734,93.8948047 C92.2560547,97.4391406 97.6403906,103.033711 99.7741797,105.125273 C101.553086,106.914961 106.575352,111.414336 106.575352,111.414336 L107.354297,110.782734 C107.356094,110.782734 101.628555,106.023711 97.2136328,101.636641 L97.2145312,101.636641 Z M37.9679687,45.8086328 C40.5303125,48.5425781 56.6842187,63.4584375 58.9509766,65.9569922 C61.4126953,68.4591406 71.7833594,78.1775391 71.7833594,78.1775391 C71.7833594,78.1775391 64.7575781,71.1445703 61.4270703,67.5436328 C58.1046484,63.9534766 45.2066797,52.7436719 41.1888672,48.4464453 C37.159375,44.1402344 30.0886719,37.1207422 30.0886719,37.1207422 L29.46875,37.6148828 C29.4732422,37.6184766 35.4128125,43.0683984 37.9679687,45.8086328 Z M102.305078,110.90043 C100.340195,108.840312 98.3825,107.218633 98.3825,107.218633 C98.3825,107.218633 100.6825,110.232891 101.762422,111.18793 C102.506328,111.850977 103.296055,112.655078 103.773125,113.139336 C103.979766,113.047695 104.195391,112.964141 104.40832,112.859023 C103.980664,112.535586 103.296953,111.966875 102.305977,110.90043 L102.305078,110.90043 Z M60.0066406,61.5573437 C59.9850781,61.5645312 59.9707031,61.5780078 59.94375,61.5780078 C60.935625,62.5105859 61.7226563,63.1951953 61.7226563,63.1951953 C61.7226563,63.1951953 60.9886328,62.5033984 60.0066406,61.5564453 L60.0066406,61.5573437 Z M67.3828125,69.5588281 C67.346875,69.3764453 67.346875,69.1940625 67.346875,69.0080859 C64.9192969,66.9120312 61.6480859,64.1601172 58.8683203,61.8619141 C58.7856641,61.8798828 58.7137891,61.9068359 58.6455078,61.9355859 C59.7146484,62.9256641 60.4262109,63.6066797 60.9634766,64.0127734 C62.459375,65.2436328 64.9192969,67.3396875 67.3828125,69.5579297 L67.3828125,69.5588281 Z M67.8140625,67.1779687 C65.6272656,64.9049219 63.3883594,62.6201953 61.6480859,60.7990625 C61.4504297,60.9032812 61.2797266,60.9949219 61.0757812,61.0928516 C63.5222266,63.4575391 65.851875,65.7377734 67.6559375,67.5166797 C67.7125391,67.4241406 67.7547656,67.2830859 67.8140625,67.1779687 Z M40.3101953,33.1029297 C38.2958984,31.0832422 36.6805078,29.4732422 36.0408203,28.8371484 L36.0228516,28.8515234 C36.6194141,29.5271484 38.1728125,31.2575391 40.0658203,33.3014844 C40.1556641,33.2296094 40.2311328,33.1757031 40.3101953,33.1038281 L40.3101953,33.1029297 Z M68.7125,65.7701172 C67.9155859,64.9830859 67.2705078,64.2814062 66.8841797,63.8986719 C66.4592187,63.5096484 64.9821875,61.9553516 63.1358984,60.0668359 C63.0550391,60.1054687 62.9607031,60.1405078 62.8753516,60.1836328 C64.4979297,61.8601172 66.5472656,63.9624609 68.5193359,66.0055078 C68.5867187,65.9246484 68.6451172,65.8473828 68.7125,65.7701172 Z M36.4478125,38.0110937 C34.4038672,35.9572656 32.5189453,34.0462891 31.6169141,33.1415625 C31.4641797,33.3266406 31.323125,33.5144141 31.179375,33.680625 C32.2179687,34.6644141 34.2250781,36.5610156 36.2914844,38.5384766 C36.3301172,38.3677734 36.3876172,38.1853906 36.4487109,38.0101953 L36.4478125,38.0110937 Z M38.2312109,35.0300781 C36.9015234,33.7399219 35.1459766,32.0364844 33.9079297,30.7984375 L33.2969922,31.3572656 L33.2790234,31.3680469 C35.2555859,33.3014844 36.7514844,34.5197656 37.8790234,35.4559375 C37.9985156,35.3076953 38.1018359,35.1684375 38.2321094,35.0300781 L38.2312109,35.0300781 Z M36.1468359,39.6228906 C33.5233984,37.0857031 31.5675,35.2636719 30.6322266,34.399375 C30.5217188,34.5503125 30.4300781,34.6751953 30.3483203,34.7839062 C31.3761328,35.7721875 33.6321094,37.9320312 36.2097266,40.4260937 C36.1594141,40.1565625 36.1423437,39.8996094 36.1450391,39.6228906 L36.1468359,39.6228906 Z M36.9796875,36.7622656 C37.05875,36.6257031 37.1620703,36.4711719 37.2492187,36.3274219 C35.3651953,34.6132031 33.5054297,32.9492969 32.5701562,32.0266016 L32.3725,32.2008984 C32.329375,32.2548047 32.2961328,32.2943359 32.2575,32.3518359 C33.1559375,33.2188281 34.9564062,34.9240625 36.9518359,36.8368359 C36.958125,36.8125781 36.9680078,36.785625 36.9787891,36.7613672 L36.9796875,36.7622656 Z" id="Shape" fill="url(#linearGradient-4)"></path>
                <path d="M37.00125,0 C37.00125,0 40.005625,2.12929688 44.8149609,6.94042969 C49.6216016,11.7344922 51.7580859,14.7568359 51.7580859,14.7568359 L51.7580859,17.4404688 L17.4296875,51.75 L14.74875,51.75 C14.74875,51.75 10.7417187,48.6279297 6.92964844,44.8050781 C2.12660156,40.0074219 0,37.0021484 0,37.0021484 L0,34.3176172 L34.3113281,0 L37.00125,0 Z" id="Shape" fill="#000000"></path>
                <path d="M36.5376563,1.43390625 L34.9159766,1.43390625 L1.43390625,34.9159766 L1.43390625,36.5439453 C1.43390625,36.5439453 3.20382813,39.0460937 7.94578125,43.7961328 C12.7012109,48.5425781 15.2051562,50.3151953 15.2051562,50.3151953 L16.8313281,50.3151953 L50.3125,16.8439062 L50.3125,15.2051562 C50.3125,15.2051562 48.5605469,12.7119922 43.7970313,7.949375 C39.0469922,3.2128125 36.5376563,1.43390625 36.5376563,1.43390625 Z" id="Shape" fill="url(#linearGradient-5)"></path>
                <path d="M36.5376563,1.43390625 L34.9159766,1.43390625 L1.43390625,34.9159766 L1.43390625,36.5439453 C1.43390625,36.5439453 3.20382813,39.0460937 7.94578125,43.7961328 C12.7012109,48.5425781 15.2051562,50.3151953 15.2051562,50.3151953 L16.8313281,50.3151953 L50.3125,16.8439062 L50.3125,15.2051562 C50.3125,15.2051562 48.5605469,12.7119922 43.7970313,7.949375 C39.0469922,3.2128125 36.5376563,1.43390625 36.5376563,1.43390625 Z" id="Shape" fill="url(#linearGradient-5)"></path>
                <path d="M49.0879297,16.4054688 C49.0879297,16.4054688 39.6812891,26.4185547 33.0472266,33.0472266 C26.4140625,39.675 16.3946875,49.0816406 16.3946875,49.0816406 C16.3946875,49.0816406 12.721875,47.1715625 8.65914063,43.0890625 C4.585625,39.0245313 2.6665625,35.3589063 2.6665625,35.3589063 C2.6665625,35.3589063 12.0642188,25.3386328 18.7054687,18.701875 C25.3386328,12.0803906 35.3472266,2.67015625 35.3472266,2.67015625 C35.3472266,2.67015625 38.8798828,4.72488281 42.9569922,8.80828125 C47.0242187,12.8692188 49.0879297,16.4054688 49.0879297,16.4054688 Z" id="Shape" fill="url(#linearGradient-6)"></path>
                <path d="M16.3946875,49.0816406 C16.3946875,49.0816406 12.7182813,47.1715625 8.65464844,43.0890625 C4.58203125,39.0245312 2.66386719,35.3589062 2.66386719,35.3589062 L1.43300781,34.916875 L1.43300781,36.5448437 C1.43300781,36.5448437 3.20292969,39.0469922 7.94667969,43.7970312 C12.7012109,48.5434766 15.2060547,50.3160937 15.2060547,50.3160937 L16.8304297,50.3160937 L16.3946875,49.0807422 L16.3946875,49.0816406 Z" id="Shape" fill="url(#linearGradient-7)"></path>
                <path d="M50.3125,16.8403125 L50.3125,15.2051562 C50.3125,15.2051562 48.5605469,12.7119922 43.7970313,7.949375 C39.0469922,3.21011719 36.5376562,1.4303125 36.5376562,1.4303125 L34.9159766,1.4303125 L35.3544141,2.66386719 C35.3544141,2.66386719 38.8879687,4.71859375 42.9605859,8.80199219 C47.0242188,12.865625 49.0879297,16.4027734 49.0879297,16.4027734 L50.3133984,16.8403125 L50.3125,16.8403125 Z" id="Shape" fill="url(#linearGradient-8)"></path>
                <g id="Group" transform="translate(22.460938, 23.359375)" fill="#494949">
                    <path d="M1.59472656,3.72671875 L1.20660156,4.1184375 L0.88765625,3.8021875 L1.99902344,2.6953125 L2.31796875,3.004375 L1.92984375,3.39609375 L3.9603125,5.4265625 L3.62160156,5.75898437 L1.595625,3.72671875 L1.59472656,3.72671875 Z M3.64765625,3.28109375 L2.08078125,2.60546875 L2.44015625,2.24609375 L3.3925,2.6953125 L2.95226562,1.73578125 L3.31164062,1.38539063 L3.98097656,2.94867187 L5.68800781,3.694375 L5.32863281,4.04296875 L4.25230469,3.54882812 L4.7509375,4.63234375 L4.39335937,4.99171875 L3.64765625,3.28109375 Z M3.5003125,1.20390625 L4.0034375,0.6971875 C4.18671875,0.508515625 4.36910156,0.421367188 4.59910156,0.424960937 C4.8371875,0.424960937 5.01597656,0.541757812 5.29988281,0.8265625 C5.50652344,1.02871094 5.62332031,1.18234375 5.67003906,1.39257812 C5.73832031,1.63246094 5.67003906,1.87234375 5.43644531,2.1203125 L5.26574219,2.29101562 L6.18394531,3.20292969 L5.83894531,3.53894531 L3.49941406,1.20300781 L3.5003125,1.20390625 Z M4.94859375,1.96578125 L5.10671875,1.80765625 C5.38074219,1.53363281 5.21453125,1.365625 4.98992188,1.13921875 C4.76261719,0.92 4.585625,0.74390625 4.32777344,1.00265625 L4.14808594,1.17964844 L4.94769531,1.96578125 L4.94859375,1.96578125 Z" id="Shape"></path>
                </g>
                <g id="Group" transform="translate(22.460938, 23.359375)" fill="#191919">
                    <path d="M1.59472656,3.45 L1.20660156,3.82734375 L0.88765625,3.51828125 L1.998125,2.40421875 L2.31707031,2.716875 L1.92804688,3.11039063 L3.95851562,5.13726563 L3.61980469,5.4696875 L1.59382813,3.45 L1.59472656,3.45 Z M3.64765625,3.00078125 L2.08167969,2.31796875 L2.44105469,1.96488281 L3.39339844,2.40332031 L2.95316406,1.44738281 L3.31253906,1.09339844 L3.97738281,2.66027344 L5.68441406,3.40417969 L5.32953125,3.76535156 L4.24871094,3.26222656 L4.74644531,4.33675781 L4.38886719,4.69253906 L3.64765625,3.00167969 L3.64765625,3.00078125 Z M3.5003125,0.90921875 L4.0034375,0.40609375 C4.18671875,0.22640625 4.36910156,0.13296875 4.60539063,0.13296875 C4.83898438,0.14015625 5.016875,0.249765625 5.304375,0.530976563 C5.51101563,0.7403125 5.6278125,0.88765625 5.67453125,1.09339844 C5.7428125,1.33597656 5.67453125,1.58125 5.4409375,1.82113281 L5.26753906,1.99902344 L6.18394531,2.91542969 L5.83984375,3.24785156 L3.5003125,0.910117188 L3.5003125,0.90921875 Z M4.94859375,1.681875 L5.10671875,1.51566406 C5.37625,1.250625 5.21183594,1.08082031 4.98992188,0.859804688 C4.76261719,0.635195313 4.585625,0.44921875 4.32507813,0.716054688 L4.14359375,0.89125 L4.94859375,1.681875 Z" id="Shape"></path>
                </g>
                <g id="Group" transform="translate(22.460938, 23.359375)" fill="#2D2D2D">
                    <path d="M1.59472656,3.5865625 L1.20660156,3.97109375 L0.88765625,3.65214844 L1.998125,2.54527344 L2.31707031,2.86152344 L1.92804688,3.24964844 L3.95851562,5.28371094 L3.61980469,5.60894531 L1.59382813,3.58746094 L1.59472656,3.5865625 Z M3.64765625,3.1409375 L2.08167969,2.458125 L2.44105469,2.10503906 L3.39339844,2.55066406 L2.95316406,1.59382812 L3.31253906,1.23445312 L3.97738281,2.803125 L5.68441406,3.54882812 L5.32953125,3.9028125 L4.25140625,3.40867187 L4.7509375,4.48140625 L4.39335937,4.84078125 L3.64765625,3.1409375 Z M3.5003125,1.049375 L4.0034375,0.548945313 C4.18671875,0.371054688 4.36910156,0.274023437 4.60539063,0.274023437 C4.84167969,0.277617188 5.02046875,0.399804688 5.304375,0.67203125 C5.50203125,0.878671875 5.62332031,1.035 5.6709375,1.23804688 C5.73921875,1.4878125 5.6709375,1.72140625 5.43734375,1.96847656 L5.26664062,2.14816406 L6.18484375,3.061875 L5.83984375,3.39609375 L3.5003125,1.049375 Z M4.94859375,1.82472656 L5.10671875,1.6675 C5.37355469,1.40246094 5.21453125,1.23265625 4.98992188,0.991875 C4.76261719,0.77265625 4.585625,0.5965625 4.32507813,0.8553125 L4.14359375,1.03320312 L4.94859375,1.82652344 L4.94859375,1.82472656 Z" id="Shape"></path>
                </g>
                <path d="M11.4254297,108.994844 C8.25125,105.81168 5.75628906,101.881016 5.75628906,101.881016 L8.85769531,98.7787109 C8.85769531,98.7787109 12.1028516,97.8982422 14.0650391,95.9144922 L77.9951563,31.9933594 C82.0560938,27.9234375 86.3057031,18.9660156 86.3057031,18.9660156 L97.5433594,7.7265625 L100.48125,5.74101562 L115,20.2750391 L112.99918,23.2039453 L101.768711,34.4416016 C101.768711,34.4416016 92.8229688,38.6930078 88.7413672,42.7575391 L24.84,106.681367 C22.8697266,108.660625 21.9829687,111.878828 21.9829687,111.878828 L18.8671875,115 C18.8671875,115 14.5978125,112.150156 11.4254297,108.994844 Z" id="Shape" fill="#000000"></path>
                <path d="M98.4840234,8.84421875 L87.6398828,19.6614062 C87.6398828,19.6614062 85.0811328,30.8523438 80.9644922,34.9707813 L78.7992578,37.1414063 L83.5969141,41.9426562 L85.7729297,39.7720313 C89.8742969,35.6571875 101.052656,33.0984375 101.052656,33.0984375 L111.903984,22.28125 L98.483125,8.84421875 L98.4840234,8.84421875 Z" id="Shape" fill="url(#linearGradient-9)"></path>
                <path d="M83.6103906,41.94625 L85.5617969,43.9120312 L87.7270312,41.7467969 C91.8508594,37.619375 101.070625,33.1038281 101.070625,33.1038281 C101.070625,33.1038281 89.8940625,35.664375 85.7792187,39.7765234 L83.6103906,41.94625 Z" id="Shape" fill="#616161"></path>
                <path d="M76.8370703,35.1828125 L78.8028516,37.145 L80.9770703,34.974375 C85.0892188,30.8559375 87.6407813,19.665 87.6407813,19.665 C87.6407813,19.665 83.1243359,28.89375 79.0067969,33.019375 L76.8379687,35.1828125 L76.8370703,35.1828125 Z" id="Shape" fill="#EBE9E9"></path>
                <path d="M78.9322266,37.00125 L17.0451563,98.9053906 C14.69125,101.243125 11.9564063,102.443438 11.9564063,102.443438 L18.3245313,108.795391 C18.3245313,108.795391 19.506875,106.046172 21.8535938,103.713828 L83.7433594,41.8060937 L78.9322266,37.00125 Z" id="Shape" fill="#FFCC33"></path>
                <path d="M7.63671875,102.028359 C7.63671875,102.028359 10.2709375,105.804492 12.4523438,107.97332 C14.6220703,110.147539 18.7198437,113.117773 18.7198437,113.117773 L7.63671875,102.028359 Z" id="Shape" fill="#BFBFBF"></path>
                <polyline id="Shape" fill="#EBE9E9" points="111.911172 22.2857422 113.147422 20.4583203 100.301563 7.61335937 98.4840234 8.84421875"></polyline>
                <g id="Group" transform="translate(21.562500, 85.351562)" fill="#BA9C0A">
                    <path d="M0.66484375,12.1360938 L0.37375,12.4146094 L0.131171875,12.1989844 L0.97390625,11.3571484 L1.21109375,11.5907422 L0.91640625,11.8674609 L2.46171875,13.4217578 L2.20296875,13.6643359 L0.66484375,12.1369922 L0.66484375,12.1360938 Z M1.23085938,11.0795312 L1.99183594,10.3113672 L2.23261719,10.5629297 L1.7321875,11.0624609 L2.2496875,11.5889453 L2.6953125,11.1523047 L2.9325,11.3769141 L2.4940625,11.7991797 L3.0115625,12.3454297 L3.5146875,11.8153516 L3.76984375,12.0938672 L3.0115625,12.8548437 L1.23265625,11.0777344 L1.23085938,11.0795312 Z M3.38710937,10.6105469 L2.20566406,10.0867578 L2.4796875,9.82621094 L3.20292969,10.1604297 L2.86152344,9.45066406 L3.13464844,9.17035156 L3.6440625,10.3670703 L4.94050781,10.9285937 L4.67097656,11.2071094 L3.85070312,10.8207812 L4.22804687,11.629375 L3.95851562,11.9105859 L3.38710937,10.6078516 L3.38710937,10.6105469 Z M3.83632812,8.9484375 L3.53535156,9.2359375 L3.29816406,9.00503906 L4.14269531,8.16230469 L4.37988281,8.38691406 L4.08699219,8.68878906 L5.6278125,10.2269141 L5.36996094,10.4784766 L3.838125,8.95113281 L3.83632812,8.9484375 Z M4.4059375,7.88199219 L4.79765625,7.52082031 C4.930625,7.37707031 5.0671875,7.30519531 5.246875,7.31417969 C5.43105469,7.31417969 5.56582031,7.40671875 5.7715625,7.61066406 C5.93328125,7.77238281 6.02582031,7.88378906 6.0590625,8.04460937 C6.10398438,8.21980469 6.0590625,8.40578125 5.88386719,8.59265625 L5.7428125,8.71125 L6.44359375,9.42730469 L6.19203125,9.66628906 L4.40414063,7.88289063 L4.4059375,7.88199219 Z M5.50652344,8.49652344 L5.63050781,8.37074219 C5.83265625,8.16949219 5.72394531,8.04371094 5.54066406,7.86132813 C5.36996094,7.69242187 5.23878906,7.55226563 5.03753906,7.7625 L4.90546875,7.89007812 L5.50742188,8.49652344 L5.50652344,8.49652344 Z M5.7571875,6.52804688 L5.97640625,6.310625 L8.150625,7.70769531 L7.8990625,7.95207031 L7.43816406,7.66097656 L7.08957031,8.00867188 L7.39144531,8.45789063 L7.13988281,8.7184375 L5.75628906,6.52625 L5.7571875,6.52804688 Z M6.38609375,6.94132813 L6.37441406,6.94132813 L6.90269531,7.72117187 L7.15425781,7.46960937 L6.38519531,6.94222656 L6.38609375,6.94132813 Z M6.92425781,5.86410156 L6.63496094,6.15160156 L6.38609375,5.93058594 L7.230625,5.06449219 L7.46871094,5.31335938 L7.17402344,5.61523438 L8.71035156,7.1515625 L8.46058594,7.41839844 L6.92425781,5.86410156 Z M7.90625,4.87132812 L7.60976562,5.18039062 L7.37347656,4.91714844 L8.21621094,4.09957031 L8.44980469,4.33496094 L8.15511719,4.61886719 L9.70042969,6.17316406 L9.44527344,6.41574219 L7.90714844,4.87222656 L7.90625,4.87132812 Z M8.47046875,3.83273438 L9.22515625,3.07445313 L9.46234375,3.30984375 L8.95742188,3.83273438 L9.48210938,4.33765625 L9.91875,3.895625 L10.1613281,4.15617188 L9.72289063,4.56945312 L10.2439844,5.10671875 L10.7542969,4.58382813 L11.0058594,4.844375 L10.2466797,5.61523438 L8.47046875,3.83273438 Z M9.54589844,2.77257812 L9.9546875,2.34402344 C10.249375,2.04753906 10.5728125,2.06550781 10.925,2.41320312 C11.1334375,2.630625 11.2196875,2.83546875 11.1478125,3.08703125 L12.2412109,3.63058594 L11.9626953,3.90910156 L10.9672266,3.37453125 L10.8162891,3.521875 L11.5754687,4.28105469 L11.3239062,4.52363281 L9.545,2.77167969 L9.54589844,2.77257812 Z M10.5952734,3.291875 L10.7462109,3.16160156 C10.9124219,2.97113281 10.8432422,2.84714844 10.6653516,2.66925781 C10.4910547,2.48957031 10.364375,2.42667969 10.1676172,2.61535156 L10.0418359,2.73214844 L10.5961719,3.29097656 L10.5952734,3.291875 Z M10.7569922,1.55789062 L10.9941797,1.30902344 L12.4496484,1.98644531 L12.4523437,1.98644531 L11.3787109,0.902929687 L11.6329687,0.660351562 L13.4154687,2.4365625 L13.1728906,2.67914062 L11.715625,2.00261719 L11.7120312,2.01699219 L12.7838672,3.08433594 L12.5233203,3.33769531 L10.7560937,1.56058594 L10.7569922,1.55789062 Z" id="Shape"></path>
                </g>
                <g id="Group" transform="translate(21.562500, 85.351562)" fill="#ECD74C">
                    <path d="M0.66484375,12.3607031 L0.37375,12.6482031 L0.131171875,12.3966406 L0.97390625,11.5700781 L1.21109375,11.7946875 L0.91640625,12.0938672 L2.46171875,13.6319922 L2.20296875,13.8925391 L0.66484375,12.3616016 L0.66484375,12.3607031 Z M1.23085938,11.3149219 L1.99183594,10.5566406 L2.23261719,10.795625 L1.7321875,11.2870703 L2.2496875,11.7955859 L2.6953125,11.3733203 L2.9325,11.5943359 L2.4940625,12.0363672 L3.0115625,12.5736328 L3.5146875,12.0507422 L3.76984375,12.3247656 L3.0115625,13.0749609 L1.23265625,11.3140234 L1.23085938,11.3149219 Z M3.38710937,10.8369531 L2.20566406,10.3320312 L2.4796875,10.0535156 L3.20292969,10.3949219 L2.86152344,9.67886719 L3.13464844,9.415625 L3.6440625,10.594375 L4.94050781,11.1603906 L4.67097656,11.4119531 L3.85070312,11.0435937 L4.22804687,11.8611719 L3.95582031,12.1414844 L3.38710937,10.8369531 Z M3.83632812,9.18832031 L3.53535156,9.47582031 L3.29816406,9.24402344 L4.14269531,8.38332031 L4.38527344,8.62589844 L4.09058594,8.92058594 L5.63140625,10.450625 L5.37355469,10.7453125 L3.83722656,9.18832031 L3.83632812,9.18832031 Z M4.4059375,8.14882812 L4.79765625,7.75890625 C4.930625,7.62234375 5.0671875,7.53789063 5.246875,7.54507812 C5.43105469,7.54507812 5.56582031,7.64390625 5.7715625,7.84695312 C5.93328125,8.00148437 6.02582031,8.12097656 6.0590625,8.27191406 C6.10398438,8.45789062 6.0590625,8.63308594 5.88386719,8.8334375 L5.7428125,8.96371094 L6.44359375,9.66449219 L6.19203125,9.91425781 L4.40414063,8.14882812 L4.4059375,8.14882812 Z M5.50652344,8.71753906 L5.63050781,8.60523437 C5.83265625,8.3878125 5.72394531,8.25753906 5.54066406,8.08953125 C5.36996094,7.920625 5.23878906,7.79125 5.03753906,8.00148437 L4.90546875,8.12457031 L5.50742188,8.71753906 L5.50652344,8.71753906 Z M5.7571875,6.76253906 L5.97640625,6.55589844 L8.150625,7.93949219 L7.90804687,8.19824219 L7.44535156,7.88199219 L7.09765625,8.23238281 L7.403125,8.69058594 L7.14707031,8.96011719 L5.7571875,6.76253906 Z M6.38609375,7.173125 L6.37441406,7.173125 L6.90269531,7.95476562 L7.15425781,7.7121875 L6.38519531,7.173125 L6.38609375,7.173125 Z M6.92425781,6.08511719 L6.63496094,6.38699219 L6.38609375,6.13363281 L7.230625,5.30527344 L7.46871094,5.54425781 L7.17402344,5.84613281 L8.71035156,7.38246094 L8.46058594,7.65378906 L6.92425781,6.08421875 L6.92425781,6.08511719 Z M7.90625,5.11660156 L7.60976562,5.40769531 L7.37347656,5.17140625 L8.21621094,4.32867187 L8.44980469,4.55957031 L8.15511719,4.85425781 L9.70042969,6.40585937 L9.44527344,6.65113281 L7.90714844,5.11480469 L7.90625,5.11660156 Z M8.47046875,4.07890625 L9.22515625,3.2990625 L9.46234375,3.55960938 L8.95742188,4.0609375 L9.48210938,4.56945313 L9.91875,4.15886719 L10.1613281,4.36820313 L9.72289063,4.79945313 L10.2439844,5.333125 L10.7542969,4.81382813 L11.0058594,5.06898438 L10.2466797,5.850625 L8.47046875,4.07621094 L8.47046875,4.07890625 Z M9.54589844,2.9971875 L9.9546875,2.57941406 C10.249375,2.28292969 10.5728125,2.30988281 10.925,2.66027344 C11.1334375,2.86152344 11.2196875,3.06816406 11.1478125,3.320625 L12.2412109,3.86148438 L11.9626953,4.13550781 L10.9672266,3.61261719 L10.8162891,3.75996094 L11.5754687,4.51105469 L11.3239062,4.77429688 L9.545,2.99808594 L9.54589844,2.9971875 Z M10.5952734,3.53804688 L10.7462109,3.38351563 C10.9124219,3.21460938 10.8432422,3.08882813 10.6653516,2.89835937 C10.4910547,2.73035156 10.364375,2.66027344 10.1676172,2.83996094 L10.0418359,2.97113281 L10.5961719,3.53894531 L10.5952734,3.53804688 Z M10.7569922,1.79328125 L10.9941797,1.55070312 L12.4496484,2.21375 L12.4523437,2.21375 L11.3787109,1.15 L11.6329687,0.875976562 L13.4154687,2.66207031 L13.1728906,2.9253125 L11.715625,2.22453125 L11.7120312,2.23082031 L12.7838672,3.31164063 L12.5233203,3.56769531 L10.7560937,1.79417969 L10.7569922,1.79328125 Z" id="Shape"></path>
                </g>
                <g id="Group" transform="translate(21.562500, 85.351562)" fill="#FCC332">
                    <path d="M0.66484375,12.2412109 L0.37375,12.5358984 L0.131171875,12.3005078 L0.97390625,11.4344141 L1.21109375,11.6976563 L0.91640625,11.9806641 L2.46171875,13.5322656 L2.20296875,13.7928125 L0.66484375,12.2412109 Z M1.23085938,11.1990234 L1.99183594,10.4173828 L2.23261719,10.6509766 L1.7321875,11.1747656 L2.2496875,11.70125 L2.6953125,11.2484375 L2.9325,11.4838281 L2.4940625,11.9330469 L3.0115625,12.4559375 L3.5146875,11.9573047 L3.76984375,12.1998828 L3.0115625,12.9707422 L1.23265625,11.198125 L1.23085938,11.1990234 Z M3.38710937,10.7453125 L2.20566406,10.2125391 L2.4796875,9.93851562 L3.20292969,10.2754297 L2.86152344,9.56566406 L3.13464844,9.28894531 L3.6440625,10.4533203 L4.94050781,11.0328125 L4.67097656,11.3140234 L3.85070312,10.9348828 L4.22804687,11.7641406 L3.95582031,11.9959375 L3.38710937,10.7471094 L3.38710937,10.7453125 Z M3.83632812,9.07601563 L3.53535156,9.36351562 L3.29816406,9.11464844 L4.14269531,8.27191406 L4.38527344,8.5171875 L4.09058594,8.81546875 L5.63140625,10.3562891 L5.37355469,10.6078516 L3.83722656,9.07601562 L3.83632812,9.07601563 Z M4.4059375,8.00867188 L4.79765625,7.64390625 C4.930625,7.49296875 5.0671875,7.42648437 5.246875,7.43367187 C5.43105469,7.43367187 5.56582031,7.5253125 5.7715625,7.72117187 C5.93328125,7.88289062 6.02582031,7.99519531 6.0590625,8.16320312 C6.10398438,8.34558594 6.0590625,8.51808594 5.88386719,8.7040625 L5.7428125,8.84421875 L6.44359375,9.53871094 L6.19203125,9.78398437 L4.40414063,8.00867188 L4.4059375,8.00867188 Z M5.50652344,8.59804688 L5.63050781,8.48574219 C5.83265625,8.26472656 5.72394531,8.15601563 5.54066406,7.98082031 C5.36996094,7.81011719 5.23878906,7.67535156 5.03753906,7.87570313 L4.90546875,8.00148438 L5.50742188,8.59804688 L5.50652344,8.59804688 Z M5.7571875,6.65382813 L5.97640625,6.43640625 L8.150625,7.82 L7.8990625,8.0715625 L7.43816406,7.7840625 L7.08957031,8.12816406 L7.39144531,8.57019531 L7.13988281,8.83972656 L5.75628906,6.65292969 L5.7571875,6.65382813 Z M6.38609375,7.07609375 L6.37441406,7.07609375 L6.90269531,7.83976562 L7.15425781,7.58101563 L6.38519531,7.07519531 L6.38609375,7.07609375 Z M6.92425781,5.97640625 L6.63496094,6.27109375 L6.38609375,6.04289062 L7.230625,5.19386719 L7.46871094,5.43375 L7.17402344,5.72484375 L8.71035156,7.27914063 L8.46058594,7.5325 L6.92425781,5.97820312 L6.92425781,5.97640625 Z M7.90625,4.98363281 L7.60976562,5.29988281 L7.37347656,5.03933594 L8.21621094,4.21097656 L8.44980469,4.44277344 L8.15511719,4.73027344 L9.70042969,6.28816406 L9.444375,6.5334375 L7.90804687,4.98273437 L7.90625,4.98363281 Z M8.47046875,3.95851563 L9.22515625,3.20023438 L9.46234375,3.42125 L8.95742188,3.93695313 L9.48210938,4.45984375 L9.91875,4.02859375 L10.1613281,4.25320312 L9.72289063,4.69523437 L10.2439844,5.2109375 L10.7542969,4.71679687 L11.0058594,4.959375 L10.2466797,5.73382812 L8.47046875,3.95851562 Z M9.54589844,2.88128906 L9.9546875,2.47699219 C10.249375,2.16253906 10.5728125,2.19847656 10.925,2.5371875 C11.1334375,2.74382812 11.2196875,2.95945312 11.1478125,3.20023437 L12.2412109,3.74378906 L11.9626953,4.02230469 L10.9672266,3.48324219 L10.8162891,3.64945312 L11.5754687,4.39335937 L11.3239062,4.63863281 L9.545,2.88128906 L9.54589844,2.88128906 Z M10.5952734,3.40417969 L10.7462109,3.263125 C10.9124219,3.08074219 10.8432422,2.96125 10.6653516,2.78695312 C10.4910547,2.61625 10.364375,2.544375 10.1676172,2.72675781 L10.0418359,2.86332031 L10.5961719,3.40238281 L10.5952734,3.40417969 Z M10.7569922,1.68007813 L10.9941797,1.43210938 L12.4496484,2.10953125 L12.4523437,2.10953125 L11.3787109,1.01792969 L11.6329687,0.7690625 L13.4154687,2.55875 L13.1728906,2.78695313 L11.715625,2.11671875 L11.7120312,2.1275 L12.7838672,3.20113281 L12.5233203,3.44371094 L10.7560937,1.68097656 L10.7569922,1.68007813 Z" id="Shape"></path>
                </g>
                <polygon id="Shape" fill="#3D2812" points="20.6820313 111.125039 18.7324219 113.089922 16.3758203 110.753984 18.3254297 108.786406"></polygon>
                <polygon id="Shape" fill="#E2D9AC" points="9.59710937 100.062578 11.9483203 102.427266 9.97625 104.387656 7.62503906 102.02207"></polygon>
                <polygon id="Shape" fill="#FCC332" points="9.97894531 104.409219 11.9321484 102.443438 18.3272266 108.798086 16.3740234 110.763867"></polygon>
                <path d="M85.7019531,43.7691797 L83.7433594,41.8213672 L21.8535938,103.71293 C19.5023828,106.04707 18.3245312,108.787305 18.3245312,108.787305 L20.6811328,111.125039 C20.6811328,111.125039 21.4645703,107.991289 23.8256641,105.649961 L85.7010547,43.7682813 L85.7019531,43.7691797 Z" id="Shape" fill="#473015"></path>
                <path d="M76.9871094,35.0390625 L15.1027344,96.9396094 C12.7308594,99.2935156 9.59980469,100.063477 9.59980469,100.063477 L11.9537109,102.446133 C11.9537109,102.446133 14.6957422,101.24582 17.0478516,98.9062891 L78.9340234,37.00125 L76.9871094,35.0390625 Z" id="Shape" fill="#EDE5B2"></path>
            </g>
        </g>
        <g id="Path">
            <use fill="black" fill-opacity="1" filter="url(#filter-12)" xlink:href="#path-11"></use>
            <use fill="url(#linearGradient-10)" fill-rule="evenodd" xlink:href="#path-11"></use>
        </g>
        <g id="download" transform="translate(20.000000, 111.000000)" fill-rule="nonzero">
            <g>
                <use fill="black" fill-opacity="1" filter="url(#filter-14)" xlink:href="#path-13"></use>
                <use fill="url(#linearGradient-10)" fill-rule="evenodd" xlink:href="#path-13"></use>
            </g>
        </g>
    </g>
</svg>